<svg width="296" height="274" viewBox="0 0 296 274" fill="none" xmlns="http://www.w3.org/2000/svg">
<path d="M90.5634 17.2327L295.995 173.835L44.5294 274L19.3613 120.413L90.5634 17.2327Z" fill="#FCC75F"/>
<path d="M15.0547 161.268L200.912 4.30786L251.248 254.397L22.3685 250.212L15.0547 161.268Z" fill="#8964FE"/>
<path d="M168.004 99.0882L156.274 173.105L156.145 173.917L154.452 184.605L145.299 185.433L141.33 185.792L137.948 186.098L140.067 207.771V207.842L145.445 262.896L59.0859 262.051L59.3183 246.462L60.6089 160.73L61.2414 118.456L106.686 110.369C112.731 109.294 118.951 110.794 123.843 114.509C128.736 118.224 131.858 123.815 132.456 129.935L134.037 146.108L134.126 146.172L137.004 148.255L153.591 90.041C154.452 90.2564 168.004 99.0882 168.004 99.0882Z" fill="#FD612E"/>
<path d="M129.465 88.9316C134.043 93.8462 135.104 101.085 132.13 107.11C129.156 113.135 122.768 116.687 116.089 116.029C109.41 115.372 103.835 110.642 102.089 104.153C100.344 97.6638 102.792 90.7701 108.238 86.8421C103.66 81.9275 102.599 74.6883 105.573 68.6635C108.547 62.6388 114.935 59.0869 121.614 59.7444C128.293 60.4018 133.869 65.1312 135.614 71.6206C137.36 78.1099 134.911 85.0036 129.465 88.9316Z" fill="black"/>
<path d="M155.834 90.8508L163.825 71.4575L163.025 80.2548L166.665 72.5238L166.349 83.053L169.268 76.6381L168.564 85.7865L171.821 79.2769L166.714 98.6076L155.834 90.8508Z" fill="#F6F4E7"/>
<path d="M197.26 141.308C197.365 140.25 197.367 130.684 197.342 121.215C197.316 111.392 197.26 101.673 197.26 101.673" stroke="black" stroke-width="1.36" stroke-miterlimit="10" stroke-linecap="round"/>
<path d="M107.852 113.406L95.5996 113.925L98.1057 96.2036L98.7402 91.7253L103.755 91.3936L104.06 93.0371L107.852 113.406Z" fill="#F6F4E7"/>
<path d="M104.058 93.0371L98.1035 96.2036L98.7381 91.7253L103.752 91.3936L104.058 93.0371Z" fill="black"/>
<path d="M102.453 92.4703C108.077 92.4703 112.636 87.9048 112.636 82.2729C112.636 76.641 108.077 72.0754 102.453 72.0754C96.8288 72.0754 92.2695 76.641 92.2695 82.2729C92.2695 87.9048 96.8288 92.4703 102.453 92.4703Z" fill="#F6F4E7"/>
<path d="M140.454 207.654L140.063 207.839L59.3184 246.462L60.6004 160.729L82.3095 224.725L140.056 207.77L140.454 207.654Z" fill="black"/>
<path d="M92.9316 143.872L92.9876 144.087L101.667 177.21L118.403 175.132C118.403 175.132 104.27 170.819 92.9316 143.872Z" fill="black"/>
<path d="M218.981 136.784V147.986H215.109V177.497H180.046V147.986H175.959V136.784H218.981Z" fill="#FD612E"/>
<path d="M185.537 125.476C185.537 125.476 185.617 125.53 185.769 125.62C186.97 126.348 192.616 129.448 197.583 126.768C197.583 126.768 191.13 119.229 185.537 125.476Z" fill="black"/>
<path d="M197.445 126.561L197.719 126.581C199.117 126.662 205.555 126.764 208.702 122.074C208.702 122.074 199.48 118.421 197.445 126.561Z" fill="black"/>
<path d="M185.537 115.567C185.537 115.567 185.617 115.621 185.769 115.711C186.97 116.439 192.616 119.539 197.583 116.859C197.583 116.859 191.13 109.32 185.537 115.567Z" fill="black"/>
<path d="M197.445 116.653L197.719 116.672C199.117 116.754 205.555 116.855 208.702 112.166C208.702 112.166 199.48 108.512 197.445 116.653Z" fill="black"/>
<path d="M185.537 106.304C185.537 106.304 185.617 106.358 185.769 106.448C186.97 107.176 192.616 110.276 197.583 107.596C197.583 107.596 191.13 100.057 185.537 106.304Z" fill="black"/>
<path d="M197.445 107.39L197.719 107.409C199.117 107.491 205.555 107.592 208.702 102.903C208.702 102.903 199.48 99.2495 197.445 107.39Z" fill="black"/>
<path d="M197.551 104.081C197.551 104.081 197.598 103.997 197.682 103.84C198.328 102.599 201.105 96.7768 198.149 91.9646C198.149 91.9646 191.001 98.8469 197.551 104.081Z" fill="black"/>
<path d="M216.059 40.9254L213.538 44.5636L211.144 42.9028L200.961 57.6196L210.206 79.2724L177.767 93.1598L165.676 64.8357L198.113 50.9483L198.762 52.4713L207.255 40.2016L204.861 38.543L207.38 34.9004L216.059 40.9254Z" fill="black"/>
<path d="M166.985 67.7977L174.111 64.7713L183.502 86.9615L176.375 89.988C170.252 92.5881 163.187 89.7284 160.594 83.6007C158 77.4731 160.862 70.3978 166.985 67.7977V67.7977Z" stroke="black" stroke-width="1.35898" stroke-miterlimit="10" stroke-linecap="round"/>
<path d="M158 92.1084L164.707 79.7827L164.561 95.8565L158 92.1084Z" fill="#F6F4E7"/>
<path d="M156.273 173.105L156.142 173.917L136.827 174.654L134.02 146.103L134.014 146.047L134.119 146.174L156.273 173.105Z" fill="black"/>
<path d="M33.5576 117.829C34.8645 117.829 35.9239 116.768 35.9239 115.459C35.9239 114.15 34.8645 113.09 33.5576 113.09C32.2508 113.09 31.1914 114.15 31.1914 115.459C31.1914 116.768 32.2508 117.829 33.5576 117.829Z" fill="black"/>
<path d="M131.001 31.2346C132.308 31.2346 133.367 30.1737 133.367 28.8651C133.367 27.5565 132.308 26.4956 131.001 26.4956C129.694 26.4956 128.635 27.5565 128.635 28.8651C128.635 30.1737 129.694 31.2346 131.001 31.2346Z" fill="black"/>
<path d="M246.304 116.105C247.611 116.105 248.67 115.045 248.67 113.736C248.67 112.427 247.611 111.366 246.304 111.366C244.997 111.366 243.938 112.427 243.938 113.736C243.938 115.045 244.997 116.105 246.304 116.105Z" fill="black"/>
<path d="M161.767 261.722C163.073 261.722 164.133 260.661 164.133 259.352C164.133 258.044 163.073 256.983 161.767 256.983C160.46 256.983 159.4 258.044 159.4 259.352C159.4 260.661 160.46 261.722 161.767 261.722Z" fill="black"/>
<path d="M60.4424 36.1889C61.7492 36.1889 62.8086 35.1281 62.8086 33.8194C62.8086 32.5108 61.7492 31.45 60.4424 31.45C59.1356 31.45 58.0762 32.5108 58.0762 33.8194C58.0762 35.1281 59.1356 36.1889 60.4424 36.1889Z" fill="black"/>
<path d="M259.21 174.481C260.517 174.481 261.576 173.421 261.576 172.112C261.576 170.803 260.517 169.742 259.21 169.742C257.903 169.742 256.844 170.803 256.844 172.112C256.844 173.421 257.903 174.481 259.21 174.481Z" fill="black"/>
<path d="M73.3517 11.2017C73.3517 11.2017 10.3239 33.3888 28.6084 63.9768C46.8929 94.5648 20.0039 102.104 20.0039 102.104" stroke="#FD612E" stroke-width="1.36" stroke-miterlimit="10" stroke-linecap="round"/>
<path d="M243.184 151.11L274.59 120.521L293.52 147.448L243.184 151.11Z" fill="#8964FE"/>
<path d="M104.544 0L94.2188 41.1431L128.637 8.61635L104.544 0Z" fill="#FCC75F"/>
<path d="M35.9255 157.886H0.449219V223.379H35.9255V157.886Z" fill="black"/>
<path d="M35.4763 155.525H0V221.018H35.4763V155.525Z" fill="#FD612E"/>
<path d="M167.143 240.827L184.997 214.332L201.561 228.549L224.147 209.593L238.345 230.487L213.822 251.813L167.143 240.827Z" stroke="white" stroke-width="1.36" stroke-miterlimit="10"/>
<path d="M51.9487 84.7634C53.6696 84.7634 60.9834 101.35 60.9834 101.35C60.9834 101.35 34.5246 142.493 35.8153 139.477C37.1059 136.462 51.9487 84.7634 51.9487 84.7634Z" stroke="white" stroke-width="1.36" stroke-miterlimit="10" stroke-linecap="round"/>
<path d="M164.669 37.3734L187.47 28.7571L191.773 41.0354L164.238 52.8829L164.669 37.3734Z" stroke="white" stroke-width="1.36" stroke-miterlimit="10"/>
<path d="M242.111 57.8374C242.111 57.8374 210.92 107.381 249.425 92.0874C287.93 76.7934 273.518 60.8531 262.332 65.8075C251.146 70.7619 241.896 117.936 267.71 114.274" stroke="#FD612E" stroke-width="1.36" stroke-miterlimit="10" stroke-linecap="round"/>
<path d="M214.898 168.019L198.979 172.973L212.962 164.788L194.462 170.819L203.066 163.495L182.706 171.071L179.834 161.126L175.567 173.423L168.562 174.5C169.315 176.698 169.982 178.927 170.684 181.103C171.702 184.262 172.835 187.396 174.082 190.505L187.419 185.704L214.037 172.758L198.334 176.851L214.898 168.019Z" fill="#F6F4E7"/>
<path d="M71.4938 109.841C65.7589 110.879 59.0625 116.48 56.4747 119.437C54.4139 121.792 52.6457 124.465 51.7422 127.459C49.2749 135.595 55.5389 146.439 58.1568 153.985C59.5938 157.463 60.5231 160.835 61.4524 163.488L65.1609 174.179C67.4174 180.682 69.6137 187.203 71.8444 193.717C72.4639 195.528 82.2064 224.68 82.4236 224.615L184.817 194.537L171.48 173.042L103.145 176.12C100.607 176.236 95.8961 155.122 95.1109 152.69C91.8126 142.494 88.1513 132.424 84.1273 122.481C81.9934 117.197 78.7194 108.533 71.4938 109.841Z" fill="#FD612E"/>
<path d="M105.15 76.6104C105.488 81.6288 103.642 86.5485 100.086 90.1014C99.7572 90.431 99.4173 90.7476 99.071 91.0406C102.013 93.9697 103.672 97.9495 103.683 102.104C103.683 111.026 96.0745 118.26 86.6892 118.26C77.3038 118.26 69.6953 111.026 69.6953 102.104C69.6953 97.309 71.8938 93.0008 75.385 90.0411C70.2249 84.8267 68.876 76.9356 72.0104 70.2994C75.1449 63.6632 82.0922 59.7014 89.391 60.3879C90.3628 52.9116 96.9176 47.444 104.436 47.8381C111.955 48.2323 117.904 54.3553 118.091 61.8924C118.278 69.4295 112.64 75.8407 105.15 76.6082V76.6104Z" fill="black"/>
<path d="M215.11 147.986L180.047 157.014V147.986H215.11Z" fill="black"/>
</svg>
