<svg width="362" height="277" viewBox="0 0 362 277" fill="none" xmlns="http://www.w3.org/2000/svg">
<path d="M361.376 68.2098L28.1309 35.969L15.1874 190.569L348.432 222.81L361.376 68.2098Z" fill="black"/>
<path d="M92.0076 249.233H310.763L165.466 12.2512L49.5039 212.946L92.0076 249.233Z" fill="#8964FE"/>
<path d="M349.403 124.573L338.873 127.506L349.403 129.313L336.866 130.543L341.469 137.39L330.819 128.636L325.703 130.024L325.716 129.931L213.635 157.552L202.496 118.56L327.597 117.318L348.73 113.471L338.797 119.429L350.223 118.663L339.321 123.853L349.403 124.573Z" fill="#F6F4E7"/>
<path d="M171.576 118.412L159.516 153.482L50.0567 122.392L46.1155 122.716L35.5849 130.416L40.197 124.295L28.028 122.835L38.3044 121.471L28.1216 118.515L37.9411 118.127L27.4395 113.102L38.5363 114.105L28.9954 108.403L49.7334 113.32L49.7312 113.267L171.576 118.412Z" fill="#F6F4E7"/>
<path d="M222.492 233.747L149.127 232.886L148.414 116.858L174.678 117.181L200.242 117.495L202.365 117.521C202.365 117.521 224.284 117.437 222.128 118.299C219.973 119.161 222.492 233.747 222.492 233.747Z" fill="black"/>
<path d="M200.5 117.174L190.667 146.792L174.807 116.858L183.516 116.966L182.359 108.02L181.724 103.113L185.259 101.751L185.981 103.302L192.386 117.074L200.5 117.174Z" fill="#F6F4E7"/>
<path d="M185.982 103.302L182.36 108.023L181.725 103.113L185.26 101.751L185.982 103.302Z" fill="black"/>
<path d="M225.361 212.627V213.24C225.361 213.968 225.092 214.667 224.612 215.181C224.133 215.696 223.482 215.986 222.804 215.986H222.537L223.379 277L146.919 276.521L147.703 224.364L147.831 215.986H147.779C147.101 215.986 146.451 215.696 145.972 215.181C145.493 214.666 145.224 213.968 145.225 213.24V212.627C145.225 211.112 146.368 209.883 147.779 209.882H222.804C224.216 209.883 225.36 211.111 225.361 212.627Z" fill="#FD612E"/>
<path d="M184.371 276.521L184.595 241.333" stroke="black" stroke-width="1.56" stroke-miterlimit="10"/>
<path d="M85.0486 151.367L58.459 179.919L84.8523 208.261L111.442 179.709L85.0486 151.367Z" fill="#FCC75F"/>
<path d="M259.592 30.4825L233.002 59.0352L259.395 87.3771L285.985 58.8244L259.592 30.4825Z" fill="#FCC75F"/>
<path d="M151.155 7.94238H80.4902V34.513H151.155V7.94238Z" fill="black"/>
<path d="M150.266 6.98511H79.6016V33.5557H150.266V6.98511Z" fill="#FD612E"/>
<path d="M310.987 233.674H240.322V260.244H310.987V233.674Z" fill="black"/>
<path d="M310.093 232.716H239.428V259.287H310.093V232.716Z" fill="#FD612E"/>
<path d="M209.561 43.6095C210.916 43.6095 212.014 42.4306 212.014 40.9764C212.014 39.5222 210.916 38.3433 209.561 38.3433C208.207 38.3433 207.109 39.5222 207.109 40.9764C207.109 42.4306 208.207 43.6095 209.561 43.6095Z" fill="black"/>
<path d="M44.3775 232.955C46.4704 232.955 48.1671 231.133 48.1671 228.886C48.1671 226.638 46.4704 224.816 44.3775 224.816C42.2846 224.816 40.5879 226.638 40.5879 228.886C40.5879 231.133 42.2846 232.955 44.3775 232.955Z" fill="black"/>
<path d="M119.727 268.862C121.82 268.862 123.517 267.04 123.517 264.792C123.517 262.545 121.82 260.723 119.727 260.723C117.634 260.723 115.938 262.545 115.938 264.792C115.938 267.04 117.634 268.862 119.727 268.862Z" fill="black"/>
<path d="M53.5201 28.7679C55.613 28.7679 57.3097 26.946 57.3097 24.6985C57.3097 22.4511 55.613 20.6292 53.5201 20.6292C51.4271 20.6292 49.7305 22.4511 49.7305 24.6985C49.7305 26.946 51.4271 28.7679 53.5201 28.7679Z" fill="black"/>
<path d="M48.166 77.84L110.583 60.605L114.372 88.6119L83.8328 100.341L81.3807 84.5425L48.8348 94.1175L48.166 77.84Z" stroke="white" stroke-width="1.56" stroke-miterlimit="10"/>
<path d="M308.87 156.235L246.676 190.466L310.876 204.11L324.697 173.231L294.826 183.524L308.87 156.235Z" stroke="white" stroke-width="1.56" stroke-miterlimit="10"/>
<path d="M200.758 21.2278C200.758 21.2278 265.181 -20.9022 288.587 16.4403C311.994 53.7829 334.954 55.4585 355.24 38.9416" stroke="#FD612E" stroke-width="1.56" stroke-miterlimit="10" stroke-linecap="round"/>
<path d="M92.8317 265.376L86.2066 262.532C90.6427 250.628 89.0488 237.848 81.9467 228.345C72.0135 215.055 52.9674 209.781 29.6837 213.875C18.1277 215.907 9.75488 213.329 4.7972 206.215C-1.51359 197.157 -1.5983 181.205 4.5453 158.802C7.41117 148.511 10.9701 138.458 15.1941 128.722L21.623 132.044C21.5472 132.209 15.6042 145.583 11.3688 161.056C8.91671 170.019 7.51456 177.904 7.20248 184.494C6.83689 192.185 7.95371 197.949 10.5173 201.626C13.7986 206.337 19.6948 207.871 28.5401 206.315C42.0779 203.936 54.2224 204.415 64.6349 207.751C74.1446 210.789 82.0581 216.256 87.5152 223.55C96.2446 235.236 98.233 250.872 92.8317 265.376ZM21.623 132.044L18.4085 130.383L21.623 132.042V132.044Z" fill="#FD612E"/>
<path d="M173.174 101.452C187.086 101.452 198.364 89.3419 198.364 74.4029C198.364 59.4639 187.086 47.3535 173.174 47.3535C159.262 47.3535 147.984 59.4639 147.984 74.4029C147.984 89.3419 159.262 101.452 173.174 101.452Z" fill="black"/>
<path d="M181.745 103.025C185.948 103.025 189.356 99.3659 189.356 94.8524C189.356 90.339 185.948 86.6802 181.745 86.6802C177.542 86.6802 174.135 90.339 174.135 94.8524C174.135 99.3659 177.542 103.025 181.745 103.025Z" fill="#F6F4E7"/>
<path d="M186.881 82.0719L170.418 89.3758C169.419 89.8191 168.944 91.0476 169.356 92.1198L170.818 95.9233C171.231 96.9955 172.375 97.5053 173.374 97.0621L189.836 89.7581C190.835 89.3148 191.311 88.0863 190.899 87.0141L189.436 83.2106C189.024 82.1384 187.88 81.6286 186.881 82.0719Z" fill="#FD612E"/>
<path d="M147.705 224.364L147.832 215.986H147.805L147.812 215.96H222.489L147.705 224.364Z" fill="black"/>
</svg>
