<svg width="375" height="351" viewBox="0 0 375 351" fill="none" xmlns="http://www.w3.org/2000/svg">
<path d="M80.0156 299.866L175.476 321.628H325.173L327.774 178.957L228.955 35.8064L117.37 75.7968L80.0156 299.866Z" fill="#FD6232"/>
<path d="M65.3594 17.4993L67.5915 307.592L314.941 155.889L65.3594 17.4993Z" fill="black"/>
<path d="M250.939 85.7212H94.6738V321.625H250.939V85.7212Z" fill="#8964FE"/>
<path d="M177.982 79.34L170.213 62.4078L176.273 65.6931L173.599 48.0027L179.975 62.155L180.373 45.981L184.358 62.155L189.739 48.5082L187.348 63.1659L195.715 52.299L188.741 74.791L177.982 79.34Z" fill="#F6F4E7"/>
<path d="M219.118 161.373L217.332 164.155L198.625 193.264L166.805 242.784L157.232 178.613L166.035 166.571L182.432 144.132L182.424 144.059L173.501 75.4886L192.961 70.3811L219.118 161.373Z" fill="#FCC75F"/>
<path d="M217.329 164.155L198.621 193.266C186.772 179.114 172.788 167.951 172.788 167.951C171.321 167.408 168.528 166.94 166.031 166.574L182.431 144.132V144.059C188.229 159.217 207.886 163.139 217.329 164.155Z" fill="black"/>
<path d="M311.18 223.335L332.289 205.394L319.487 211.184L329.256 200.474L316.305 207.729L323.79 197.35L312.972 205.74L319.934 194.201L308.895 205.69L307.008 196.62L305.605 212.897L302.625 217.376L311.18 223.335Z" fill="#F6F4E7"/>
<path d="M158.896 169.591L145.791 170.145L148.25 152.796L149.154 146.412L154.517 146.061L154.916 148.206L158.896 169.591Z" fill="#F6F4E7"/>
<path d="M154.916 148.204L148.25 152.793L149.154 146.409L154.517 146.058L154.916 148.204Z" fill="black"/>
<path d="M215.984 286.53L191.824 255.342L199.326 332.179L106.967 331.259L109.29 177.764L130.934 173.92L128.391 157.125L153.288 158.403L158.176 166.126L160.022 160.377L171.506 157.822L171.024 166.796L178.293 171.835L184.108 176.281L226.402 225.313L300.382 204.115L320.425 225.432L215.984 286.53Z" fill="#FCC75F"/>
<path d="M161.767 163.748H89.0221C78.9188 163.748 70.7285 171.946 70.7285 182.058V318.299C70.7285 328.411 78.9188 336.609 89.0221 336.609H161.767C171.871 336.609 180.061 328.411 180.061 318.299V182.058C180.061 171.946 171.871 163.748 161.767 163.748Z" fill="black"/>
<path d="M151.842 163.748H88.0904C78.5017 163.748 70.7285 171.528 70.7285 181.125V319.232C70.7285 328.829 78.5017 336.609 88.0904 336.609H151.842C161.43 336.609 169.204 328.829 169.204 319.232V181.125C169.204 171.528 161.43 163.748 151.842 163.748Z" fill="#FD6232"/>
<path d="M74.9277 170.415L88.1512 220.61H139.661L167.812 169.333" stroke="black" stroke-width="1.44" stroke-miterlimit="10"/>
<path d="M111.759 227.308C115.664 227.308 118.829 224.139 118.829 220.231C118.829 216.323 115.664 213.155 111.759 213.155C107.855 213.155 104.689 216.323 104.689 220.231C104.689 224.139 107.855 227.308 111.759 227.308Z" fill="#FCC75F"/>
<path d="M101.295 132.338L137.228 102.049L119.498 94.9504L103.896 111.514L101.295 132.338Z" stroke="white" stroke-width="1.44" stroke-miterlimit="10"/>
<path d="M221.219 58.1113L225.006 128.873L271.466 102.337L221.219 58.1113Z" stroke="white" stroke-width="1.44" stroke-miterlimit="10"/>
<path d="M150.605 21.4945L74.3789 37.8499L79.6372 62.4204L155.863 46.0651L150.605 21.4945Z" fill="black"/>
<path d="M148.003 20.5468L71.7773 36.9021L77.0356 61.4726L153.262 45.1173L148.003 20.5468Z" fill="#FD6232"/>
<path d="M269.446 269.891L226.773 315.886L309.341 312.095L269.446 269.891Z" fill="black"/>
<path d="M266.669 268.375L223.996 314.37L306.564 310.579L266.669 268.375Z" fill="#FCC75F"/>
<path d="M87.2291 48.4551C87.2291 48.4551 17.2512 65.4909 59.3329 118.729C101.415 171.967 32.6184 229.938 50.3489 248.157" stroke="#FCC75F" stroke-width="1.44" stroke-miterlimit="10" stroke-linecap="round"/>
<path d="M174.65 34.3558C177.009 30.3325 259.45 -12.8574 277.274 44.8512C281.93 59.9335 283.417 75.5188 283.937 91.1925C284.112 96.4996 284.975 102.059 288.2 106.272C292.568 111.989 300.226 114.008 305.728 118.64" stroke="#FD6232" stroke-width="1.44" stroke-miterlimit="10" stroke-linecap="round"/>
<path d="M173.162 47.156C175.382 47.156 177.182 45.3547 177.182 43.1327C177.182 40.9107 175.382 39.1094 173.162 39.1094C170.942 39.1094 169.143 40.9107 169.143 43.1327C169.143 45.3547 170.942 47.156 173.162 47.156Z" fill="black"/>
<path d="M51.887 296.072C54.1071 296.072 55.9068 294.271 55.9068 292.049C55.9068 289.827 54.1071 288.026 51.887 288.026C49.6669 288.026 47.8672 289.827 47.8672 292.049C47.8672 294.271 49.6669 296.072 51.887 296.072Z" fill="black"/>
<path d="M319.971 142.747C322.191 142.747 323.991 140.946 323.991 138.724C323.991 136.502 322.191 134.701 319.971 134.701C317.751 134.701 315.951 136.502 315.951 138.724C315.951 140.946 317.751 142.747 319.971 142.747Z" fill="black"/>
<path d="M259.452 50.9392C260.889 50.9392 262.053 49.7738 262.053 48.3362C262.053 46.8986 260.889 45.7332 259.452 45.7332C258.016 45.7332 256.852 46.8986 256.852 48.3362C256.852 49.7738 258.016 50.9392 259.452 50.9392Z" fill="black"/>
<path d="M51.1769 145.113C52.6133 145.113 53.7777 143.947 53.7777 142.51C53.7777 141.072 52.6133 139.907 51.1769 139.907C49.7406 139.907 48.5762 141.072 48.5762 142.51C48.5762 143.947 49.7406 145.113 51.1769 145.113Z" fill="black"/>
<path d="M191.836 254.998L173.207 332.285L199.25 332.06L191.836 254.998Z" fill="black"/>
<path d="M152.22 146.73C158.235 146.73 163.111 141.85 163.111 135.83C163.111 129.811 158.235 124.931 152.22 124.931C146.206 124.931 141.33 129.811 141.33 135.83C141.33 141.85 146.206 146.73 152.22 146.73Z" fill="#F6F4E7"/>
<path d="M133.409 143.076L174.758 130.263C174.758 130.263 163.772 107.265 147.059 112.944C125.773 120.174 133.409 143.076 133.409 143.076Z" fill="#FD6232"/>
</svg>
